<mxfile host="app.diagrams.net" agent="Mozilla/5.0 (Macintosh; Intel Mac OS X 10_15_7) AppleWebKit/537.36 (KHTML, like Gecko) Chrome/131.0.0.0 Safari/537.36" version="25.0.3">
  <diagram name="Page-1" id="6Mw9IOJvSCJcCOZ4GTFr">
    <mxGraphModel dx="1154" dy="779" grid="1" gridSize="10" guides="1" tooltips="1" connect="1" arrows="1" fold="1" page="1" pageScale="1" pageWidth="1600" pageHeight="1200" math="0" shadow="0">
      <root>
        <mxCell id="0" />
        <mxCell id="1" parent="0" />
        <mxCell id="flXZZ3zYYz5a7-yL_w6W-4" style="edgeStyle=orthogonalEdgeStyle;rounded=0;orthogonalLoop=1;jettySize=auto;html=1;entryX=0;entryY=0.5;entryDx=0;entryDy=0;" edge="1" parent="1" source="flXZZ3zYYz5a7-yL_w6W-1" target="flXZZ3zYYz5a7-yL_w6W-2">
          <mxGeometry relative="1" as="geometry" />
        </mxCell>
        <mxCell id="flXZZ3zYYz5a7-yL_w6W-6" style="edgeStyle=orthogonalEdgeStyle;rounded=0;orthogonalLoop=1;jettySize=auto;html=1;" edge="1" parent="1" source="flXZZ3zYYz5a7-yL_w6W-1" target="flXZZ3zYYz5a7-yL_w6W-3">
          <mxGeometry relative="1" as="geometry" />
        </mxCell>
        <mxCell id="flXZZ3zYYz5a7-yL_w6W-11" style="edgeStyle=orthogonalEdgeStyle;rounded=0;orthogonalLoop=1;jettySize=auto;html=1;entryX=0;entryY=0.5;entryDx=0;entryDy=0;" edge="1" parent="1" source="flXZZ3zYYz5a7-yL_w6W-1" target="flXZZ3zYYz5a7-yL_w6W-10">
          <mxGeometry relative="1" as="geometry" />
        </mxCell>
        <mxCell id="flXZZ3zYYz5a7-yL_w6W-1" value="User" style="whiteSpace=wrap;html=1;aspect=fixed;" vertex="1" parent="1">
          <mxGeometry x="40" y="110" width="80" height="80" as="geometry" />
        </mxCell>
        <mxCell id="flXZZ3zYYz5a7-yL_w6W-2" value="Lambda - Connect" style="rounded=1;whiteSpace=wrap;html=1;" vertex="1" parent="1">
          <mxGeometry x="270" y="100" width="120" height="40" as="geometry" />
        </mxCell>
        <mxCell id="flXZZ3zYYz5a7-yL_w6W-3" value="Lambda - Stream" style="rounded=1;whiteSpace=wrap;html=1;" vertex="1" parent="1">
          <mxGeometry x="270" y="160" width="120" height="40" as="geometry" />
        </mxCell>
        <mxCell id="flXZZ3zYYz5a7-yL_w6W-5" value="Connection request - one time, contains all request parameters" style="text;html=1;align=center;verticalAlign=middle;resizable=0;points=[];autosize=1;strokeColor=none;fillColor=none;" vertex="1" parent="1">
          <mxGeometry x="130" y="70" width="360" height="30" as="geometry" />
        </mxCell>
        <mxCell id="flXZZ3zYYz5a7-yL_w6W-7" value="Streaming messages -&amp;nbsp;&lt;div&gt;Request has only ConnectionID&lt;/div&gt;" style="text;html=1;align=center;verticalAlign=middle;resizable=0;points=[];autosize=1;strokeColor=none;fillColor=none;" vertex="1" parent="1">
          <mxGeometry x="235" y="200" width="190" height="40" as="geometry" />
        </mxCell>
        <mxCell id="flXZZ3zYYz5a7-yL_w6W-8" value="1" style="text;html=1;align=center;verticalAlign=middle;resizable=0;points=[];autosize=1;strokeColor=none;fillColor=none;" vertex="1" parent="1">
          <mxGeometry x="205" y="100" width="30" height="30" as="geometry" />
        </mxCell>
        <mxCell id="flXZZ3zYYz5a7-yL_w6W-9" value="2" style="text;html=1;align=center;verticalAlign=middle;resizable=0;points=[];autosize=1;strokeColor=none;fillColor=none;" vertex="1" parent="1">
          <mxGeometry x="205" y="160" width="30" height="30" as="geometry" />
        </mxCell>
        <mxCell id="flXZZ3zYYz5a7-yL_w6W-10" value="Lambda - Disconnect" style="rounded=1;whiteSpace=wrap;html=1;" vertex="1" parent="1">
          <mxGeometry x="270" y="250" width="120" height="40" as="geometry" />
        </mxCell>
        <mxCell id="flXZZ3zYYz5a7-yL_w6W-12" value="3" style="text;html=1;align=center;verticalAlign=middle;resizable=0;points=[];autosize=1;strokeColor=none;fillColor=none;" vertex="1" parent="1">
          <mxGeometry x="215" y="248" width="30" height="30" as="geometry" />
        </mxCell>
      </root>
    </mxGraphModel>
  </diagram>
</mxfile>
